<svg width="10" height="16" viewBox="0 0 10 16" fill="none" xmlns="http://www.w3.org/2000/svg">
<path d="M9.68359 7.64063C9.78776 7.74479 9.83984 7.86458 9.83984 8C9.83984 8.13542 9.78776 8.25521 9.68359 8.35938L2.40234 15.6406C2.29818 15.7448 2.17839 15.7969 2.04297 15.7969C1.90755 15.7969 1.78776 15.7448 1.68359 15.6406L0.902344 14.8594C0.798177 14.7552 0.746094 14.6354 0.746094 14.5C0.746094 14.3646 0.798177 14.2448 0.902344 14.1406L7.04297 8L0.902344 1.85938C0.798177 1.75521 0.746094 1.63542 0.746094 1.5C0.746094 1.36458 0.798177 1.24479 0.902344 1.14063L1.68359 0.359375C1.78776 0.255208 1.90755 0.203125 2.04297 0.203125C2.17839 0.203125 2.29818 0.255208 2.40234 0.359375L9.68359 7.64063Z" fill="white"/>
</svg>
